<svg width="26" height="26" viewBox="0 0 26 26" fill="none" xmlns="http://www.w3.org/2000/svg">
<path opacity="0.2" d="M17.9018 7.07782C18.3597 7.91175 18.6005 8.84747 18.6021 9.79886V10.189C18.6037 10.5503 18.4814 10.9013 18.2557 11.1834C18.03 11.4656 17.7144 11.6618 17.3616 11.7396C15.9301 12.0595 14.4666 12.2139 12.9999 12.1998C11.5332 12.2139 10.0697 12.0595 8.63826 11.7396C8.28541 11.6618 7.96984 11.4656 7.74413 11.1834C7.51842 10.9013 7.39618 10.5503 7.39779 10.189V9.87889C7.39837 8.89692 7.65342 7.93186 8.13807 7.07782C4.38664 7.84811 1.79565 9.49874 1.79565 11.3995C1.79565 14.0505 6.80756 16.2013 12.9999 16.2013C19.1923 16.2013 24.2042 14.0505 24.2042 11.3995C24.2042 9.49874 21.6332 7.85812 17.9018 7.07782Z" fill="#009379"/>
<path d="M17.0815 19.0723L17.4717 21.4332" stroke="#009379" stroke-width="1.44817" stroke-linecap="round" stroke-linejoin="round"/>
<path d="M13 19.4025V22.6037" stroke="#009379" stroke-width="1.44817" stroke-linecap="round" stroke-linejoin="round"/>
<path d="M8.91847 19.0723L8.52832 21.4332" stroke="#009379" stroke-width="1.44817" stroke-linecap="round" stroke-linejoin="round"/>
<path d="M17.9018 7.07782C21.6332 7.85812 24.2042 9.49874 24.2042 11.3995C24.2042 14.0505 19.1923 16.2013 12.9999 16.2013C6.80756 16.2013 1.79565 14.0505 1.79565 11.3995C1.79565 9.49874 4.38664 7.84811 8.13807 7.07782" stroke="#009379" stroke-width="1.44817" stroke-linecap="round" stroke-linejoin="round"/>
<path d="M7.39772 10.1889C7.39612 10.5502 7.51835 10.9012 7.74406 11.1833C7.96978 11.4654 8.28534 11.6617 8.63819 11.7395C10.0697 12.0594 11.5331 12.2138 12.9999 12.1997C14.4666 12.2138 15.9301 12.0594 17.3615 11.7395C17.7144 11.6617 18.0299 11.4654 18.2556 11.1833C18.4814 10.9012 18.6036 10.5502 18.602 10.1889V9.79874C18.602 9.05713 18.4549 8.32288 18.169 7.6386C17.8831 6.95431 17.4641 6.3336 16.9365 5.81247C16.4088 5.29133 15.783 4.88015 15.0952 4.60277C14.4074 4.32539 13.6714 4.18733 12.9298 4.1966C9.84865 4.23662 7.39772 6.8076 7.39772 9.87877V10.1889Z" stroke="#009379" stroke-width="1.44817" stroke-linecap="round" stroke-linejoin="round"/>
</svg>
